<svg width="28" height="20" viewBox="0 0 28 20" fill="none" xmlns="http://www.w3.org/2000/svg">
<rect width="28" height="20" rx="2" fill="white"/>
<mask id="mask0_13_712" style="mask-type:alpha" maskUnits="userSpaceOnUse" x="0" y="0" width="28" height="20">
<rect width="28" height="20" rx="2" fill="white"/>
</mask>
<g mask="url(#mask0_13_712)">
<path fill-rule="evenodd" clip-rule="evenodd" d="M0 14.6668H28V9.3335H0V14.6668Z" fill="#0748AE"/>
<path fill-rule="evenodd" clip-rule="evenodd" d="M0 19.9998H28V14.6665H0V19.9998Z" fill="#DE2035"/>
<path fill-rule="evenodd" clip-rule="evenodd" d="M0 9.33333H28V0H0V9.33333Z" fill="#FFD935"/>
<path fill-rule="evenodd" clip-rule="evenodd" d="M12.4 8.00001C11.7523 8.48652 11.3333 9.26111 11.3333 10.1336C11.3333 11.6063 12.5273 12.8002 14 12.8002C15.4728 12.8002 16.6667 11.6063 16.6667 10.1336C16.6667 9.26111 16.2477 8.48651 15.6 8L14.6667 10.7999H13.3333L12.4 8.00001Z" fill="#FFD935"/>
<path fill-rule="evenodd" clip-rule="evenodd" d="M14 7.3335L14.6667 10.6668H13.3333L14 7.3335Z" fill="#5FC0DC"/>
<path opacity="0.66" d="M17.3333 6.00016L15.3333 5.3335L14 6.66683L12.6667 5.3335L10.6667 6.00016" stroke="#3F2821" stroke-width="0.666667" stroke-linecap="round" stroke-linejoin="round"/>
</g>
</svg>
