<svg width="28" height="20" viewBox="0 0 28 20" fill="none" xmlns="http://www.w3.org/2000/svg">
<rect x="0.25" y="0.25" width="27.5" height="19.5" rx="1.75" fill="white" stroke="#F5F5F5" stroke-width="0.5"/>
<mask id="mask0_13_1529" style="mask-type:alpha" maskUnits="userSpaceOnUse" x="0" y="0" width="28" height="20">
<rect x="0.25" y="0.25" width="27.5" height="19.5" rx="1.75" fill="white" stroke="white" stroke-width="0.5"/>
</mask>
<g mask="url(#mask0_13_1529)">
<rect x="18.6667" width="9.33333" height="20" fill="#E3283E"/>
<path fill-rule="evenodd" clip-rule="evenodd" d="M0 20H9.33333V0H0V20Z" fill="#128A60"/>
<path d="M12 9.33325C12 8.96506 11.7015 8.66659 11.3333 8.66659C10.9651 8.66659 10.6667 8.96506 10.6667 9.33325H12ZM12.329 12.218C12.6475 12.4028 13.0555 12.2944 13.2402 11.976C13.425 11.6575 13.3167 11.2496 12.9982 11.0648L12.329 12.218ZM15.0757 11.0198C14.7655 11.2181 14.6748 11.6304 14.8732 11.9406C15.0716 12.2508 15.4839 12.3414 15.794 12.143L15.0757 11.0198ZM17.3333 9.33325C17.3333 8.96506 17.0349 8.66659 16.6667 8.66659C16.2985 8.66659 16 8.96506 16 9.33325H17.3333ZM10.6667 9.33325C10.6667 10.5663 11.3365 11.6421 12.329 12.218L12.9982 11.0648C12.3999 10.7176 12 10.0718 12 9.33325H10.6667ZM15.794 12.143C16.7183 11.5519 17.3333 10.5146 17.3333 9.33325H16C16 10.0409 15.6329 10.6633 15.0757 11.0198L15.794 12.143Z" fill="#8C9157"/>
<path fill-rule="evenodd" clip-rule="evenodd" d="M14 10.6667C14.7364 10.6667 15.3333 9.77132 15.3333 8.66675C15.3333 7.56218 14.7364 6.66675 14 6.66675C13.2636 6.66675 12.6667 7.56218 12.6667 8.66675C12.6667 9.77132 13.2636 10.6667 14 10.6667Z" fill="#C59262"/>
</g>
</svg>
