<svg width="34" height="38" viewBox="0 0 34 38" fill="none" xmlns="http://www.w3.org/2000/svg">
<path fill-rule="evenodd" clip-rule="evenodd" d="M17 0.670044C16.1237 0.670044 15.2628 0.900352 14.5036 1.33786L2.83981 8.00289L2.83337 8.00658C2.07403 8.44499 1.44333 9.07537 1.00453 9.83449C0.565732 10.5936 0.334274 11.4548 0.333374 12.3316V25.6683C0.334274 26.5452 0.565732 27.4063 1.00453 28.1654C1.44333 28.9245 2.07403 29.5549 2.83337 29.9933L2.83981 29.997L14.5 36.66L14.5031 36.6618C15.2243 37.0774 16.0372 37.3062 16.8679 37.3281C16.9115 37.3316 16.9556 37.3333 17 37.3333C17.0445 37.3333 17.0886 37.3316 17.1322 37.3281C17.963 37.3062 18.7759 37.0774 19.497 36.6617L19.5 36.66L31.1603 29.997L31.1667 29.9933C31.9261 29.5549 32.5568 28.9245 32.9956 28.1654C33.4344 27.4063 33.6658 26.5452 33.6667 25.6683V12.3316C33.6658 11.4548 33.4344 10.5936 32.9956 9.83449C32.5568 9.07537 31.9261 8.44499 31.1667 8.00657L19.5 1.33992L19.4966 1.33791C18.7373 0.900371 17.8764 0.670044 17 0.670044ZM18.6667 33.297L29.5 27.1066L29.5027 27.1051C29.7546 26.959 29.9639 26.7494 30.1097 26.4973C30.2559 26.2442 30.3331 25.9572 30.3334 25.6649V13.2292L18.6667 19.978V33.297ZM15.3334 19.9779L3.66671 13.2292V25.6656C3.66713 25.9577 3.74428 26.2444 3.89042 26.4973C4.03618 26.7494 4.24547 26.959 4.49741 27.1051L4.50004 27.1066L15.3334 33.297V19.9779ZM16.1667 4.22667C16.4201 4.08039 16.7075 4.00338 17 4.00338C17.2926 4.00338 17.58 4.08039 17.8334 4.22667L17.8398 4.23036L28.6018 10.38L24.5087 12.7477L12.9349 6.07345L16.1603 4.23036L16.1667 4.22667ZM17.0001 17.0912L5.39836 10.38L9.58335 7.9886L21.1776 14.6746L17.0001 17.0912Z" fill="#F6F8FD"/>
</svg>
