<svg xmlns="http://www.w3.org/2000/svg" width="63" height="63" viewBox="0 0 63 63"><defs><style>.a{opacity:0.5;}.b{fill:#748a9d;}</style></defs><g class="a"><g transform="translate(5.25 7.875)"><path class="b" d="M41.056,47.25H11.444A11.451,11.451,0,0,1,0,35.818V20.242A11.451,11.451,0,0,1,11.444,8.81a.519.519,0,0,0,.5-.314l.156-.314.218-.46C13,6.277,13.78,4.643,14.253,3.7a6.387,6.387,0,0,1,5.8-3.7H32.418a6.406,6.406,0,0,1,5.828,3.7c.413.826,1.04,2.152,1.647,3.434l.373.788.265.576a.592.592,0,0,0,.524.314A11.451,11.451,0,0,1,52.5,20.242V35.818A11.451,11.451,0,0,1,41.056,47.25ZM26.25,16.807a10.294,10.294,0,0,0-7.324,3.043,10.151,10.151,0,0,0-2.993,7.262A10.3,10.3,0,0,0,26.25,37.417,10.226,10.226,0,0,0,33.522,34.4a10.278,10.278,0,0,0,.026-14.579A10.25,10.25,0,0,0,26.25,16.807Zm14.725-.628a2.373,2.373,0,1,0,2.391,2.386A2.377,2.377,0,0,0,40.975,16.178ZM26.25,33.484a6.36,6.36,0,0,1-6.379-6.372v-.026a6.134,6.134,0,0,1,1.838-4.458A6.378,6.378,0,1,1,26.25,33.484Z"/></g></g></svg>