<svg xmlns="http://www.w3.org/2000/svg" width="25" height="25.73" viewBox="0 0 25 25.73">
  <g id="Calculator_icon" transform="translate(0 0)">
    <path id="Calendar" d="M7.156,25.73H7.143a7.16,7.16,0,0,1-5.195-1.918A7.138,7.138,0,0,1,.015,18.618L0,7.053A7.066,7.066,0,0,1,1.693,2.188,6.859,6.859,0,0,1,6.259.077C6.275.031,10.081,0,13.623,0c3.133,0,5,.023,5,.061A6.894,6.894,0,0,1,23.24,2.127a6.935,6.935,0,0,1,1.745,4.839L25,18.669c.005,4.34-2.724,7.041-7.123,7.048Zm7.879-6.4A1.639,1.639,0,0,0,13.443,21a1.632,1.632,0,1,0,1.61-1.676Zm-9.121,0h0a1.676,1.676,0,0,0-1.591,1.694,1.622,1.622,0,0,0,1.6,1.573l.073,0A1.618,1.618,0,0,0,7.525,20.9,1.6,1.6,0,0,0,5.914,19.33Zm4.578-.01h0A1.68,1.68,0,0,0,8.9,21.014a1.622,1.622,0,0,0,1.6,1.573l.07,0a1.622,1.622,0,0,0,1.534-1.7A1.6,1.6,0,0,0,10.492,19.32ZM20.046,14.9a2,2,0,0,0-2,2v3.64a2,2,0,0,0,2,2h.167a2,2,0,0,0,2-2V16.9a2,2,0,0,0-2-2Zm-5.011,0a1.639,1.639,0,0,0-1.591,1.676,1.632,1.632,0,1,0,1.61-1.676Zm-9.121,0h0a1.676,1.676,0,0,0-1.591,1.694,1.622,1.622,0,0,0,1.6,1.573l.073,0a1.618,1.618,0,0,0,1.533-1.694A1.6,1.6,0,0,0,5.914,14.9Zm4.578-.01h0A1.68,1.68,0,0,0,8.9,16.582a1.622,1.622,0,0,0,1.6,1.573l.07,0a1.622,1.622,0,0,0,1.534-1.7A1.6,1.6,0,0,0,10.492,14.888ZM19.781,10.4a1.736,1.736,0,1,0,0,3.472h.695a1.736,1.736,0,0,0,0-3.472ZM5.9,10.465h0a1.673,1.673,0,0,0-1.588,1.694,1.618,1.618,0,0,0,1.6,1.573l.073,0a1.617,1.617,0,0,0,1.531-1.694A1.6,1.6,0,0,0,5.9,10.465Zm4.585-.068h-.005A1.674,1.674,0,0,0,8.893,12.09a1.619,1.619,0,0,0,1.6,1.573l.072,0A1.622,1.622,0,0,0,12.1,11.968,1.6,1.6,0,0,0,10.489,10.4Zm4.562.01h0a1.626,1.626,0,0,0-1.591,1.651v.022a1.6,1.6,0,0,0,1.616,1.572h.038a1.623,1.623,0,0,0-.057-3.245Zm-2-8.288c-3.336,0-6.738.028-6.785.081C3.5,2.476,2.108,4.108,2.111,7.051l0,.432,20.761-.028V6.969a5.107,5.107,0,0,0-1.136-3.423,4.555,4.555,0,0,0-3.108-1.36C18.6,2.139,15.805,2.118,13.047,2.118Z" transform="translate(0 0)" fill="#ff4860"/>
  </g>
</svg>
