<svg xmlns="http://www.w3.org/2000/svg" width="33.86" height="33.86" viewBox="0 0 33.86 33.86"><defs><style>.a{fill:none;}.b{fill:#ff4860;}</style></defs><path class="a" d="M0,0H33.86V33.86H0Z"/><path class="b" d="M18.775,11.453l-2.667,2.667-2.667-2.667a1.407,1.407,0,0,0-1.989,1.989l2.667,2.667-2.667,2.667a1.407,1.407,0,0,0,1.989,1.989L16.108,18.1l2.667,2.667a1.407,1.407,0,0,0,1.989-1.989L18.1,16.108l2.667-2.667a1.405,1.405,0,0,0,0-1.989A1.431,1.431,0,0,0,18.775,11.453ZM16.108,2A14.108,14.108,0,1,0,30.217,16.108,14.1,14.1,0,0,0,16.108,2Zm0,25.4A11.287,11.287,0,1,1,27.4,16.108,11.3,11.3,0,0,1,16.108,27.4Z" transform="translate(0.822 0.822)"/></svg>