<svg xmlns="http://www.w3.org/2000/svg" width="37" height="37" viewBox="0 0 37 37"><defs><style>.a{fill:#fff;stroke:#ff4860;stroke-width:2px;}.b{fill:#ff4860;}.c{stroke:none;}.d{fill:none;}</style></defs><g transform="translate(-36 -623)"><g class="a" transform="translate(36 623)"><circle class="c" cx="18.5" cy="18.5" r="18.5"/><circle class="d" cx="18.5" cy="18.5" r="17.5"/></g><g transform="translate(44.5 629.5)"><g transform="translate(2 2.5)"><path class="b" d="M0,15.746c0-2.585,3.454-3.231,7.5-3.231,4.067,0,7.5.669,7.5,3.253S11.545,19,7.5,19C3.434,19,0,18.329,0,15.746Zm16.1-5.658V8.911H14.9a.912.912,0,0,1,0-1.823h1.2V5.911a.9.9,0,1,1,1.8,0V7.088h1.2a.912.912,0,0,1,0,1.823H17.9v1.177a.9.9,0,1,1-1.8,0ZM2.537,5.027a4.963,4.963,0,1,1,9.925,0,4.963,4.963,0,1,1-9.925,0Z"/></g></g></g></svg>