<svg width="16" height="16" viewBox="0 0 16 16" fill="none" xmlns="http://www.w3.org/2000/svg">
<path fill-rule="evenodd" clip-rule="evenodd" d="M5.6439 3.49087C5.49518 3.69172 5.51226 3.97822 5.70014 4.16004C5.90014 4.36004 6.22681 4.36004 6.42681 4.16004L7.48681 3.09337V5.85337H8.51348V3.09337L9.57348 4.16004L9.63097 4.20963C9.83182 4.35839 10.1183 4.34186 10.3001 4.16004C10.4001 4.06004 10.4535 3.92671 10.4535 3.79337C10.4535 3.66671 10.4001 3.53337 10.3001 3.43337L8.36014 1.48671L8.29966 1.43236C8.21348 1.36751 8.10681 1.33337 8.00014 1.33337C7.86014 1.33337 7.73348 1.38671 7.63348 1.48671L5.69348 3.43337L5.6439 3.49087ZM4.15412 5.85679C2.58528 5.93089 1.33334 7.2506 1.33334 8.85835V12.1684L1.33657 12.3101C1.40941 13.9067 2.70687 15.1868 4.30001 15.1868H11.7067L11.8459 15.1836C13.4147 15.1095 14.6667 13.7896 14.6667 12.1752V8.87192L14.6634 8.7297C14.5902 7.12728 13.2867 5.85351 11.7 5.85351H8.51334V9.92327L8.50859 9.99482C8.47413 10.2518 8.25668 10.4456 8.00001 10.4456C7.71334 10.4456 7.48668 10.2149 7.48668 9.92327V5.85351H4.29334L4.15412 5.85679Z" fill="#FF4860"/>
</svg>
