<svg xmlns="http://www.w3.org/2000/svg" width="38.866" height="40.001" viewBox="0 0 38.866 40.001"><defs><style>.a{fill:#f6f8fd;}</style></defs><g transform="translate(0 0.001)"><path class="a" d="M11.1,40a11.128,11.128,0,0,1-8.074-2.982,11.1,11.1,0,0,1-3-8.073L0,10.966A10.986,10.986,0,0,1,2.631,3.4,10.666,10.666,0,0,1,9.73.121C9.767.048,15.7,0,21.223,0c4.772,0,7.736.036,7.736.095a10.72,10.72,0,0,1,7.17,3.212,10.784,10.784,0,0,1,2.714,7.524l.023,18.193c.008,6.747-4.235,10.946-11.073,10.957L11.124,40Zm12.27-9.952a2.547,2.547,0,0,0-2.473,2.6,2.538,2.538,0,1,0,2.5-2.6Zm-14.184,0a2.6,2.6,0,0,0-2.473,2.632A2.519,2.519,0,0,0,9.2,35.129l.116,0A2.514,2.514,0,0,0,11.7,32.494a2.486,2.486,0,0,0-2.5-2.443Zm7.117-.015a2.612,2.612,0,0,0-2.473,2.632,2.521,2.521,0,0,0,2.489,2.445l.111,0a2.519,2.519,0,0,0,2.383-2.635,2.485,2.485,0,0,0-2.5-2.44Zm13.748-6.875a2,2,0,0,0-2,2v7.876a2,2,0,0,0,2,2h2.478a2,2,0,0,0,2-2V25.16a2,2,0,0,0-2-2Zm-6.682,0A2.548,2.548,0,0,0,20.9,25.762a2.538,2.538,0,1,0,2.5-2.606Zm-14.184,0a2.6,2.6,0,0,0-2.473,2.632A2.52,2.52,0,0,0,9.2,28.238l.115,0A2.514,2.514,0,0,0,11.7,25.6a2.485,2.485,0,0,0-2.5-2.443Zm7.117-.015a2.611,2.611,0,0,0-2.473,2.632,2.521,2.521,0,0,0,2.49,2.445l.111,0a2.519,2.519,0,0,0,2.383-2.635,2.484,2.484,0,0,0-2.5-2.44Zm13.748-6.983a2,2,0,0,0-2,2v1.4a2,2,0,0,0,2,2h2.478a2,2,0,0,0,2-2v-1.4a2,2,0,0,0-2-2Zm-20.88.107A2.6,2.6,0,0,0,6.7,18.9a2.516,2.516,0,0,0,2.485,2.446l.115,0a2.47,2.47,0,0,0,1.723-.812,2.514,2.514,0,0,0,.656-1.82,2.485,2.485,0,0,0-2.5-2.444Zm7.124-.107a2.6,2.6,0,0,0-2.473,2.632,2.518,2.518,0,0,0,2.491,2.446l.109,0a2.522,2.522,0,0,0,2.383-2.632,2.49,2.49,0,0,0-2.5-2.443Zm7.092.015a2.53,2.53,0,0,0-2.473,2.569v.033a2.49,2.49,0,0,0,2.512,2.444h.058a2.524,2.524,0,0,0-.092-5.045ZM20.3,3.294c-5.194,0-10.491.043-10.563.125A7.05,7.05,0,0,0,4.948,5.592a7.9,7.9,0,0,0-1.664,5.37l0,.671,32.276-.043v-.755a7.941,7.941,0,0,0-1.766-5.323A7.082,7.082,0,0,0,28.963,3.4C28.918,3.325,24.579,3.294,20.3,3.294Z" transform="translate(0 0)"/></g></svg>