<svg width="16" height="16" viewBox="0 0 16 16" fill="none" xmlns="http://www.w3.org/2000/svg">
<path d="M7.48674 4.86031V2.18763C7.48674 1.90345 7.71341 1.66663 8.00008 1.66663C8.25674 1.66663 8.4742 1.86562 8.50866 2.11768L8.51341 2.18763V4.86031L11.7 4.86051C13.2867 4.86051 14.5902 6.15981 14.6634 7.78023L14.6667 7.92402V11.2836C14.6667 12.9153 13.4084 14.2548 11.8454 14.33L11.7067 14.3333H4.29334C2.70668 14.3333 1.4094 13.0405 1.33657 11.4141L1.33334 11.2698L1.33334 7.91713C1.33334 6.28536 2.58528 4.93943 4.14801 4.86386L4.28668 4.86051H7.48668V9.12877L6.42001 8.02728C6.22001 7.82075 5.89334 7.82075 5.69334 8.02728C5.59334 8.13055 5.54668 8.26823 5.54668 8.40592C5.54668 8.51056 5.57654 8.61961 5.63969 8.71191L5.69334 8.77767L7.63334 10.7879C7.72668 10.8911 7.86001 10.9462 8.00001 10.9462C8.11112 10.9462 8.22223 10.908 8.3102 10.8355L8.36001 10.7879L10.3 8.77767C10.5 8.57114 10.5 8.23381 10.3 8.02728C10.1182 7.83953 9.83169 7.82246 9.63084 7.97608L9.57334 8.02728L8.51334 9.12877V4.86051L7.48674 4.86031Z" fill="#FE9920"/>
</svg>
