<svg xmlns="http://www.w3.org/2000/svg" width="27" height="26" viewBox="0 0 27 26">
  <g id="Group_514" data-name="Group 514" transform="translate(-0.331 0)">
    <rect id="Rectangle_1997" data-name="Rectangle 1997" width="22" height="22" rx="4" transform="translate(0.331 0)" fill="none"/>
    <path id="Union_8" data-name="Union 8" d="M9,26a4,4,0,0,1-4-4H4a4,4,0,0,1-4-4V4A4,4,0,0,1,4,0H18a4,4,0,0,1,4,4h1a4,4,0,0,1,4,4V22a4,4,0,0,1-4,4ZM7,22a2,2,0,0,0,2,2H23a2,2,0,0,0,2-2V8a2,2,0,0,0-2-2H9A2,2,0,0,0,7,8V20H7v2H7ZM2,4V18a2,2,0,0,0,2,2H5V8A4,4,0,0,1,9,4H20a2,2,0,0,0-2-2H4A2,2,0,0,0,2,4Z" transform="translate(0.331 0)" fill="#fff"/>
    <rect id="Rectangle_1998" data-name="Rectangle 1998" width="22" height="22" rx="4" transform="translate(5.331 4)" fill="none"/>
  </g>
</svg>
