<svg width="82" height="82" viewBox="0 0 82 82" fill="none" xmlns="http://www.w3.org/2000/svg">
<rect width="82" height="82" rx="8" fill="white"/>
<path fill-rule="evenodd" clip-rule="evenodd" d="M41.4254 26.3362C40.7244 26.3362 40.0357 26.5204 39.4283 26.8704L30.0973 32.2025L30.0921 32.2054C29.4846 32.5561 28.9801 33.0604 28.629 33.6677C28.278 34.275 28.0928 34.964 28.0921 35.6654V46.3348C28.0928 47.0363 28.278 47.7252 28.629 48.3325C28.9801 48.9398 29.4846 49.4441 30.0921 49.7948L30.0973 49.7978L39.4254 55.1281L39.4279 55.1296C40.0048 55.4621 40.6551 55.6451 41.3197 55.6626C41.3546 55.6654 41.3898 55.6668 41.4254 55.6668C41.461 55.6668 41.4963 55.6654 41.5312 55.6626C42.1958 55.6451 42.8461 55.4621 43.423 55.1295L43.4254 55.1281L52.7536 49.7978L52.7588 49.7948C53.3662 49.4441 53.8708 48.9398 54.2218 48.3325C54.5729 47.7252 54.758 47.0363 54.7588 46.3348V35.6654C54.758 34.964 54.5729 34.275 54.2218 33.6677C53.8708 33.0604 53.3662 32.5561 52.7588 32.2054L43.4254 26.8721L43.4227 26.8705C42.8153 26.5204 42.1265 26.3362 41.4254 26.3362ZM42.7588 52.4378L51.4254 47.4854L51.4275 47.4842C51.6291 47.3673 51.7965 47.1997 51.9131 46.998C52.0301 46.7955 52.0919 46.5659 52.0921 46.3321V36.3835L42.7588 41.7825V52.4378ZM40.0921 41.7825L30.7588 36.3835V46.3327C30.7591 46.5663 30.8208 46.7957 30.9377 46.998C31.0543 47.1997 31.2218 47.3673 31.4233 47.4842L31.4254 47.4854L40.0921 52.4378V41.7825ZM40.7588 29.1815C40.9615 29.0645 41.1914 29.0028 41.4254 29.0028C41.6595 29.0028 41.8894 29.0645 42.0921 29.1815L42.0973 29.1844L50.7068 34.1042L47.4324 35.9983L38.1733 30.6589L40.7536 29.1844L40.7588 29.1815ZM41.4255 39.4731L32.1441 34.1042L35.4921 32.191L44.7675 37.5399L41.4255 39.4731Z" fill="#748A9D" fill-opacity="0.5"/>
</svg>
