<svg xmlns="http://www.w3.org/2000/svg" width="27.211" height="22.51" viewBox="0 0 27.211 22.51">
  <path id="Path_155" data-name="Path 155" d="M19.507,13.5a1.505,1.505,0,0,1-1.5,1.5H4.5a1.5,1.5,0,0,1,0-3H18.007A1.505,1.505,0,0,1,19.507,13.5ZM3,7.5A1.505,1.505,0,0,0,4.5,9H18.007a1.5,1.5,0,0,0,0-3H4.5A1.505,1.505,0,0,0,3,7.5ZM13.5,19.506a1.505,1.505,0,0,0-1.5-1.5H4.5a1.5,1.5,0,0,0,0,3H12A1.505,1.505,0,0,0,13.5,19.506Zm12.02-3.2,1.065-1.065a1.494,1.494,0,0,1,2.116,0l1.065,1.065a1.494,1.494,0,0,1,0,2.116l-1.065,1.065ZM24.46,17.375l-7.744,7.744a.724.724,0,0,0-.21.525V27.76a.743.743,0,0,0,.75.75h2.116a.7.7,0,0,0,.525-.225l7.744-7.744Z" transform="translate(-3 -6)" fill="#748a9d"/>
</svg>
