<svg xmlns="http://www.w3.org/2000/svg" width="24.613" height="24.613" viewBox="0 0 24.613 24.613">
  <g id="Group_531" data-name="Group 531" transform="translate(-121 -322)">
    <path id="Ellipse_443" data-name="Ellipse 443" d="M12.307,2.051A10.256,10.256,0,1,0,22.562,12.307,10.267,10.267,0,0,0,12.307,2.051m0-2.051A12.307,12.307,0,1,1,0,12.307,12.307,12.307,0,0,1,12.307,0Z" transform="translate(121 322)" fill="#748a9d"/>
    <g id="Group_49" data-name="Group 49" transform="translate(127.247 329.925)">
      <path id="switch-line-2" d="M1440.707,4368.384a1.025,1.025,0,0,1-.725-1.75l6.771-6.771a1.025,1.025,0,1,1,1.45,1.45l-6.77,6.771A1.021,1.021,0,0,1,1440.707,4368.384Z" transform="translate(-1436.337 -4359.563)" fill="#748a9d"/>
      <path id="switch-line-1" d="M1.026,5.283A1.026,1.026,0,0,1,.3,3.533L3.533.3a1.026,1.026,0,1,1,1.45,1.45L1.751,4.983A1.022,1.022,0,0,1,1.026,5.283Z" transform="translate(5.283 3.61) rotate(90)" fill="#748a9d"/>
    </g>
  </g>
</svg>
