<svg width="24" height="25" viewBox="0 0 24 25" fill="none" xmlns="http://www.w3.org/2000/svg">
<path fill-rule="evenodd" clip-rule="evenodd" d="M19.7828 3.64571C19.6266 3.80192 19.3734 3.80192 19.2172 3.64571L18.2828 2.7114C18.1266 2.55519 17.8734 2.55519 17.7172 2.7114L16.7828 3.64571C16.6266 3.80192 16.3734 3.80192 16.2172 3.64571L15.2828 2.7114C15.1266 2.55519 14.8734 2.55519 14.7172 2.7114L13.7828 3.64571C13.6266 3.80192 13.3734 3.80192 13.2172 3.64571L12.2828 2.7114C12.1266 2.55519 11.8734 2.55519 11.7172 2.7114L10.7828 3.64571C10.6266 3.80192 10.3734 3.80192 10.2172 3.64571L9.28284 2.7114C9.12663 2.55519 8.87337 2.55519 8.71716 2.7114L7.78284 3.64571C7.62663 3.80192 7.37337 3.80192 7.21716 3.64571L6.68284 3.1114C6.43086 2.85941 6 3.03788 6 3.39424V16.4286H3.4C3.17909 16.4286 3 16.6076 3 16.8286V19.4286C3 21.0886 4.34 22.4286 6 22.4286H18C19.66 22.4286 21 21.0886 21 19.4286V3.39424C21 3.03788 20.5691 2.85941 20.3172 3.1114L19.7828 3.64571ZM15 20.4286H6C5.45 20.4286 5 19.9786 5 19.4286V18.4286H15V20.4286ZM19 19.4286C19 19.9786 18.55 20.4286 18 20.4286C17.45 20.4286 17 19.9786 17 19.4286V16.8286C17 16.6076 16.8209 16.4286 16.6 16.4286H8V5.42855H19V19.4286ZM14.6 7.42855H9.4C9.17909 7.42855 9 7.60764 9 7.82855V9.02855C9 9.24947 9.17909 9.42855 9.4 9.42855H14.6C14.8209 9.42855 15 9.24947 15 9.02855V7.82855C15 7.60764 14.8209 7.42855 14.6 7.42855ZM16.4 7.42855H17.6C17.8209 7.42855 18 7.60764 18 7.82855V9.02855C18 9.24947 17.8209 9.42855 17.6 9.42855H16.4C16.1791 9.42855 16 9.24947 16 9.02855V7.82855C16 7.60764 16.1791 7.42855 16.4 7.42855ZM14.6 10.4286H9.4C9.17909 10.4286 9 10.6076 9 10.8286V12.0286C9 12.2495 9.17909 12.4286 9.4 12.4286H14.6C14.8209 12.4286 15 12.2495 15 12.0286V10.8286C15 10.6076 14.8209 10.4286 14.6 10.4286ZM16.4 10.4286H17.6C17.8209 10.4286 18 10.6076 18 10.8286V12.0286C18 12.2495 17.8209 12.4286 17.6 12.4286H16.4C16.1791 12.4286 16 12.2495 16 12.0286V10.8286C16 10.6076 16.1791 10.4286 16.4 10.4286Z" fill="#748A9D"/>
</svg>
