<svg id="Reporte_icon" xmlns="http://www.w3.org/2000/svg" width="25" height="25" viewBox="0 0 25 25">
  <g id="Danger" transform="translate(2.26 2)">
    <path id="Danger-2" data-name="Danger" d="M10.5,23A12.5,12.5,0,0,1-2,10.5,12.5,12.5,0,0,1,10.5-2,12.5,12.5,0,0,1,23,10.5,12.5,12.5,0,0,1,10.5,23Zm0-19.026a.382.382,0,0,0-.34.2L8.1,7.944a.386.386,0,0,1-.155.154L4.176,10.159a.388.388,0,0,0,0,.681L7.944,12.9a.393.393,0,0,1,.155.154l2.061,3.769a.388.388,0,0,0,.68,0L12.9,13.055a.4.4,0,0,1,.154-.154l3.769-2.061a.388.388,0,0,0,0-.681L13.055,8.1a.388.388,0,0,1-.154-.154L10.841,4.176A.383.383,0,0,0,10.5,3.974Z" transform="translate(-0.26 0)" fill="#748a9d"/>
  </g>
</svg>
