<svg id="Scan_Icon" xmlns="http://www.w3.org/2000/svg" width="36" height="29.333" viewBox="0 0 36 29.333">
  <g id="Scan">
    <path id="Scan-2" data-name="Scan" d="M23.892,29.333a1.217,1.217,0,1,1,0-2.433H26.5a3.985,3.985,0,0,0,4.028-3.934v-5.8H26.234v1.616a3.7,3.7,0,0,1-3.714,3.693H13.48a3.706,3.706,0,0,1-3.713-3.693V17.166H5.476v5.808A3.979,3.979,0,0,0,9.49,26.9h2.664a1.217,1.217,0,1,1,0,2.433H9.487a6.444,6.444,0,0,1-6.5-6.358V17.166H1.247a1.216,1.216,0,1,1,0-2.432H34.756a1.216,1.216,0,1,1,0,2.432H33.018v5.8A6.45,6.45,0,0,1,26.5,29.333ZM10.211,12.26a.454.454,0,0,1-.442-.439V9.791A3.7,3.7,0,0,1,13.482,6.1h9.04a3.721,3.721,0,0,1,2.632,1.079,3.683,3.683,0,0,1,1.082,2.612v2.03a.458.458,0,0,1-.446.439ZM30.526,9.391V6.365A3.985,3.985,0,0,0,26.5,2.433H23.892a1.231,1.231,0,0,1-1.246-1.214A1.233,1.233,0,0,1,23.892,0H26.5a6.448,6.448,0,0,1,6.517,6.365V9.391a1.246,1.246,0,0,1-2.49,0Zm-27.542,0V6.359A6.443,6.443,0,0,1,9.487,0h2.667A1.232,1.232,0,0,1,13.4,1.217a1.23,1.23,0,0,1-1.246,1.216H9.489A3.978,3.978,0,0,0,5.477,6.359V9.39a1.247,1.247,0,0,1-2.493,0Z" fill="#133c55"/>
  </g>
</svg>
