<svg width="14" height="11" viewBox="0 0 14 11" fill="none" xmlns="http://www.w3.org/2000/svg">
<path d="M8.5 2.75008V1.55758C8.49913 1.40862 8.54265 1.26276 8.625 1.13862C8.70735 1.01448 8.82481 0.917681 8.96239 0.860556C9.09997 0.803431 9.25145 0.788573 9.39751 0.817875C9.54357 0.847177 9.6776 0.919313 9.7825 1.02508L13.225 4.46758C13.3647 4.60811 13.4431 4.7982 13.4431 4.99633C13.4431 5.19447 13.3647 5.38456 13.225 5.52508L9.7825 8.96758C9.67805 9.0729 9.54471 9.14488 9.39935 9.17442C9.25399 9.20396 9.10314 9.18973 8.96586 9.13354C8.82859 9.07734 8.71106 8.9817 8.62814 8.85872C8.54521 8.73573 8.50062 8.59091 8.5 8.44258V7.17508C4.75 7.17508 2.125 8.37508 0.25 11.0001C1 7.25008 3.25 3.50008 8.5 2.75008Z" fill="#F6F8FD"/>
</svg>
