<svg xmlns="http://www.w3.org/2000/svg" width="17.873" height="17.873" viewBox="0 0 17.873 17.873"><defs><style>.a{fill:#ff4860;}</style></defs><g transform="translate(-22 -22)"><g transform="translate(22 22)"><path class="a" d="M25.83,39.873H36.043a3.83,3.83,0,0,0,3.83-3.83v-3.83H37.32v3.83a1.277,1.277,0,0,1-1.277,1.277H25.83a1.277,1.277,0,0,1-1.277-1.277V25.83a1.277,1.277,0,0,1,1.277-1.277h3.83V22H25.83A3.83,3.83,0,0,0,22,25.83V36.043a3.83,3.83,0,0,0,3.83,3.83Z" transform="translate(-22 -22)"/><path class="a" d="M42.34,31.575l1.806,1.806,7.022-7.022v3.3h2.553V23.277A1.277,1.277,0,0,0,52.445,22H46.062v2.553h3.3Z" transform="translate(-35.848 -22)"/></g></g></svg>