<svg xmlns="http://www.w3.org/2000/svg" width="31" height="25" viewBox="0 0 31 25"><defs><style>.a{fill:#ff4860;}.b{fill:#fff;}</style></defs><g transform="translate(-442 -394)"><rect class="a" width="31" height="25" rx="5" transform="translate(442 394)"/><g transform="translate(447 396)"><g transform="translate(2.625 1.75)"><path class="b" d="M4.49,17.466a2.552,2.552,0,0,1-2.565-2.474c-.274-2.491-.732-8.38-.74-8.44a.692.692,0,0,1,.167-.488.619.619,0,0,1,.458-.2H13.947a.634.634,0,0,1,.458.2.652.652,0,0,1,.158.488c0,.06-.466,5.957-.732,8.44a2.553,2.553,0,0,1-2.622,2.474c-1.133.025-2.24.034-3.33.034C6.721,17.5,5.589,17.491,4.49,17.466ZM.624,4.455A.639.639,0,0,1,0,3.812V3.48a.633.633,0,0,1,.624-.643H3.176A1.122,1.122,0,0,0,4.262,1.95l.133-.6A1.74,1.74,0,0,1,6.068,0H9.682a1.739,1.739,0,0,1,1.665,1.31l.143.639a1.12,1.12,0,0,0,1.086.889h2.552a.633.633,0,0,1,.624.643v.332a.639.639,0,0,1-.624.643Z"/></g></g></g></svg>