<svg width="16" height="16" viewBox="0 0 16 16" fill="none" xmlns="http://www.w3.org/2000/svg">
<path d="M1.20874 9.33321H12.3787L7.49874 14.2132C7.10874 14.6032 7.10874 15.2432 7.49874 15.6332C7.88874 16.0232 8.51874 16.0232 8.90874 15.6332L15.4987 9.04321C15.8887 8.65321 15.8887 8.02321 15.4987 7.63321L8.91874 1.03321C8.73191 0.845956 8.47826 0.740723 8.21374 0.740723C7.94922 0.740723 7.69557 0.845956 7.50874 1.03321C7.11874 1.42321 7.11874 2.05321 7.50874 2.44321L12.3787 7.33321H1.20874C0.65874 7.33321 0.20874 7.78321 0.20874 8.33321C0.20874 8.88321 0.65874 9.33321 1.20874 9.33321Z" fill="#F6F8FD"/>
</svg>
